<?xml version="1.0" encoding="UTF-8"?>
<svg width="100mm" height="100mm" version="1.1" viewBox="0 0 100 100" xml:space="preserve" xmlns="http://www.w3.org/2000/svg" xmlns:xlink="http://www.w3.org/1999/xlink"><defs><linearGradient id="a"><stop stop-color="#5f1291" offset="0"/><stop stop-color="#911cdd" offset="1"/></linearGradient><linearGradient id="c"><stop stop-color="#b30425" offset="0"/><stop stop-color="#ee453d" offset=".48392"/><stop stop-color="#fda600" offset="1"/></linearGradient><linearGradient id="b" x1="143.29" x2="143.29" y1="146.74" y2="110.95" gradientUnits="userSpaceOnUse" xlink:href="#c"/><linearGradient id="e" x1="94.725" x2="94.725" y1="159.85" y2="143.4" gradientUnits="userSpaceOnUse" xlink:href="#a"/><linearGradient id="d" x1="63.153" x2="126.3" y1="151.63" y2="151.63" gradientUnits="userSpaceOnUse" xlink:href="#a"/></defs><g transform="matrix(1.9197 0 0 1.9197 -156.35 -202.77)"><g transform="matrix(-.73793 0 0 .73793 177.39 38.67)" fill="url(#d)"><g transform="translate(-49.04 -1.0756)" stroke-width=".26909"><path d="m115.32 158.62 28.558 1.1929v1.1206h-27.344z" stop-color="#000000"/><path d="m172.21 158.62-28.558 1.1929v1.1206h27.344z" stop-color="#000000"/></g><g transform="translate(-48.932)" stroke-width=".27365"><path d="m143.66 156.93s8.8047-13.527 28.341-13.527c0 0-6.2277 2.6789-7.3191 4.2003l5.457-1.1576 5.0932 5.6885s-21.696 0.42995-29.997 4.8617c0 0 13.173-2.9731 26.766-2.9731v1.6832s-19.847-0.12209-28.341 2.1914z" stop-color="#000000"/><path d="m143.66 156.93s-8.8047-13.527-28.341-13.527c0 0 6.2277 2.6789 7.3191 4.2003l-5.457-1.1576-5.0932 5.6885s21.696 0.42995 29.997 4.8617c0 0-13.173-2.9731-26.766-2.9731v1.6832s19.847-0.12209 28.341 2.1914z" stop-color="#000000"/></g></g><g transform="matrix(.79935 0 0 .79935 -7.7057 31.205)" fill="url(#b)"><path d="m149.11 125.79s7.086-3.8119 7.086-9.752c0 0 3.6027 5.1626 0.21486 7.9752-1.2684 1.0531-3.5167 1.7768-7.3008 1.7768z" stop-color="#000000" stroke-width=".27365"/><path d="m135.24 126.2s-1.9886-3.4088-0.20066-10.081c1.7879-6.6726 6.9784-7.7751-2.712-14.39 0 0 5.5893 3.9357 1.5214 10.153 0 0 0.39688-2.6128-0.7276-4.4979 0 0-7.3193 11.759 2.1189 18.816z" stop-color="#000000" stroke-width=".27365"/><path d="m136.3 146.12s0.10026 0.4463 2.6362 0.57869c4.4217 0.23086 10.839-0.49263 12.771-6.2004 0 0 0.89474 2.3635-1.283 6.0775 0 0 5.5542-3.427 1.9077-10.467 0 0 3.7816 3.1738 4.9971 6.3814 0 0 0.79345-4.575-6.8034-9.9435 0 0 5.2672-0.13579 7.7657-5.7905 0 0-8.3424 2.8566-10.563-0.67683 0 0-1.0505-1.5519 2.7217-4.9779 3.7722-3.426 5.324-13.239-1.7906-20.496l0.52525 3.1276s-1.3609-6.0642-10.72-9.2872c0 0 4.1208 2.6262 4.8895 9.5976 0 0-1.7858-4.0587-8.1126-5.4434 0 0 9.0944 4.5221 4.2765 12.456-4.8179 7.9343-5.4022 16.781 1.4856 19.921 0 0-2.1093 0.99972-5.392-3.0948 0 0-2.3636-2.5546-5.7896 0.25068 0 0 1.325-0.14325 2.1129 1.1818 0 0-2.0294-0.93671-2.674-0.58456-0.64462 0.35215-0.96938 0.79501-0.96938 1.7066 0 0 2.7855-1.0804 4.4231 0.55711 1.6376 1.6375 4.44 7.006 9.9772 7.006 0 0 3.3089 0.2701 5.6892-4.1023 0 0 0.28699 3.3595-5.1321 7.293 0 0 2.9206 0.35452 5.1152-3.5114 0 0-1.8674 8.5592-12.064 8.441z" stop-color="#000000" stroke-width=".27937"/></g></g></svg>